<svg width="1920" height="1080" viewBox="0 0 1920 1080" fill="none" xmlns="http://www.w3.org/2000/svg">
<rect width="1920" height="1080" fill="#141414"/>
<path d="M196.728 57C196.696 57.384 196.664 57.736 196.632 58.056C196.6 58.344 196.568 58.68 196.536 59.064C196.504 59.416 196.44 59.864 196.344 60.408C196.28 60.92 196.184 61.64 196.056 62.568C195.96 63.464 195.816 64.584 195.624 65.928C195.464 67.272 195.256 68.952 195 70.968C194.584 74.2 194.232 76.888 193.944 79.032C193.656 81.144 193.304 82.824 192.888 84.072C192.504 85.32 191.992 86.2 191.352 86.712C190.712 87.224 189.816 87.48 188.664 87.48C188.12 87.48 187.528 87.448 186.888 87.384C186.28 87.32 185.864 87.256 185.64 87.192L184.488 86.904V82.68C184.808 82.744 185.128 82.808 185.448 82.872C185.736 82.904 186.04 82.936 186.36 82.968C186.712 83 187.064 83.016 187.416 83.016C187.864 83.016 188.216 82.888 188.472 82.632C188.76 82.376 189.016 81.832 189.24 81C189.496 80.136 189.736 78.92 189.96 77.352C190.216 75.752 190.52 73.624 190.872 70.968L192.456 57H196.728ZM186.504 81L183.72 57H187.848L190.632 81H186.504ZM206.27 71.352H210.398V75.048C210.398 76.328 210.302 77.368 210.109 78.168C209.918 78.968 209.598 79.592 209.15 80.04C208.734 80.456 208.158 80.744 207.422 80.904C206.718 81.032 205.854 81.096 204.83 81.096C203.87 81.096 203.022 81.032 202.286 80.904C201.55 80.744 200.926 80.44 200.414 79.992C199.902 79.512 199.518 78.856 199.262 78.024C199.006 77.16 198.878 76.024 198.878 74.616V62.232C198.878 60.12 199.358 58.68 200.318 57.912C201.31 57.144 202.766 56.792 204.686 56.856C205.646 56.856 206.478 56.952 207.182 57.144C207.886 57.304 208.478 57.592 208.958 58.008C209.438 58.392 209.79 58.936 210.014 59.64C210.27 60.312 210.398 61.176 210.398 62.232V66.024H206.27V62.904C206.27 62.072 206.174 61.496 205.982 61.176C205.822 60.856 205.374 60.696 204.638 60.696C203.902 60.696 203.438 60.872 203.246 61.224C203.086 61.544 203.006 62.104 203.006 62.904V74.424C203.006 75.448 203.118 76.184 203.342 76.632C203.566 77.08 204.014 77.304 204.686 77.304C205.39 77.304 205.822 77.08 205.982 76.632C206.174 76.184 206.27 75.448 206.27 74.424V71.352ZM220.426 61.368L219.034 61.32L218.89 65.544C218.73 69.032 218.57 71.832 218.41 73.944C218.25 76.024 217.946 77.608 217.498 78.696C217.082 79.784 216.458 80.472 215.626 80.76C214.794 81.048 213.658 81.144 212.218 81.048L211.594 81V76.632C211.978 76.632 212.298 76.648 212.554 76.68C212.842 76.712 213.082 76.664 213.274 76.536C213.498 76.376 213.674 76.104 213.802 75.72C213.962 75.304 214.106 74.696 214.234 73.896C214.362 73.096 214.474 72.056 214.57 70.776C214.698 69.464 214.81 67.832 214.906 65.88L215.338 57H224.746V81H220.426V61.368ZM239.9 57C239.868 57.384 239.836 57.736 239.804 58.056C239.772 58.344 239.74 58.68 239.708 59.064C239.676 59.416 239.612 59.864 239.516 60.408C239.452 60.92 239.356 61.64 239.228 62.568C239.132 63.464 238.988 64.584 238.796 65.928C238.636 67.272 238.428 68.952 238.172 70.968C237.756 74.2 237.404 76.888 237.116 79.032C236.828 81.144 236.476 82.824 236.06 84.072C235.676 85.32 235.164 86.2 234.524 86.712C233.884 87.224 232.988 87.48 231.836 87.48C231.292 87.48 230.7 87.448 230.06 87.384C229.452 87.32 229.036 87.256 228.812 87.192L227.66 86.904V82.68C227.98 82.744 228.3 82.808 228.62 82.872C228.908 82.904 229.212 82.936 229.532 82.968C229.884 83 230.236 83.016 230.588 83.016C231.036 83.016 231.388 82.888 231.644 82.632C231.932 82.376 232.188 81.832 232.412 81C232.668 80.136 232.908 78.92 233.132 77.352C233.388 75.752 233.692 73.624 234.044 70.968L235.628 57H239.9ZM229.676 81L226.892 57H231.02L233.804 81H229.676ZM242.049 57H246.369V81H242.049V57ZM251.601 57L250.641 61.272L243.009 59.832V57H251.601ZM261.496 66.552H261.16L258.088 80.952V81H253.768V57H258.088L257.656 71.304H257.992L260.968 57L261.016 57.576V57H265.336V81H261.016L261.496 66.552Z" fill="white"/>
<path d="M297.328 74.424C297.328 75.448 297.408 76.184 297.568 76.632C297.76 77.08 298.208 77.304 298.912 77.304C299.584 77.304 300.032 77.08 300.256 76.632C300.48 76.184 300.592 75.448 300.592 74.424V63.528C300.592 62.728 300.496 62.072 300.304 61.56C300.144 61.016 299.696 60.744 298.96 60.744C298.224 60.744 297.76 61 297.568 61.512C297.408 62.024 297.328 62.696 297.328 63.528V64.488H293.2V62.856C293.2 60.744 293.664 59.24 294.592 58.344C295.552 57.416 296.992 56.936 298.912 56.904C300.832 56.84 302.272 57.288 303.232 58.248C304.224 59.208 304.72 60.744 304.72 62.856V74.616C304.72 76.024 304.592 77.16 304.336 78.024C304.08 78.856 303.696 79.512 303.184 79.992C302.672 80.44 302.048 80.744 301.312 80.904C300.576 81.032 299.728 81.096 298.768 81.096C297.744 81.096 296.864 81.032 296.128 80.904C295.424 80.744 294.848 80.456 294.4 80.04C293.984 79.592 293.68 78.968 293.488 78.168C293.296 77.368 293.2 76.328 293.2 75.048V73.656H297.328V74.424ZM303.568 71.544L295.744 71.4V67.128H303.568V71.544ZM309.679 57H313.999V81H309.679V57ZM317.647 61.416L306.079 61.272V57H317.647V61.416ZM327.031 77.976H326.743C326.615 78.936 326.311 79.688 325.831 80.232C325.383 80.744 324.647 81 323.623 81C322.215 81 321.239 80.584 320.695 79.752C320.151 78.888 319.879 77.752 319.879 76.344L319.831 67.656V66.888L319.879 61.656C319.879 60.248 320.151 59.128 320.695 58.296C321.239 57.432 322.215 57 323.623 57C324.647 57 325.383 57.272 325.831 57.816C326.311 58.328 326.615 59.064 326.743 60.024H327.031V57H331.351V81H327.031V77.976ZM327.031 60.984C325.911 60.6 325.127 60.616 324.679 61.032C324.231 61.448 324.007 62.2 324.007 63.288V74.712C324.007 75.8 324.231 76.552 324.679 76.968C325.127 77.384 325.911 77.4 327.031 77.016V60.984ZM341.469 57H345.789V81H341.469V57ZM334.221 57H338.541V81H334.221V57ZM344.781 61.416L335.661 61.272V57H344.781V61.416ZM365.651 81.048H361.331V57H365.651V81.048ZM352.979 66.504C353.267 66.344 353.571 66.2 353.891 66.072C354.179 65.976 354.515 65.896 354.899 65.832C355.283 65.736 355.683 65.688 356.099 65.688C356.483 65.688 356.915 65.736 357.395 65.832C357.875 65.928 358.323 66.12 358.739 66.408C359.155 66.696 359.507 67.112 359.795 67.656C360.083 68.168 360.227 68.84 360.227 69.672L360.179 76.344C360.179 77.784 359.715 78.92 358.787 79.752C357.859 80.584 356.435 81 354.515 81H348.659V57H352.979V66.504ZM352.979 77.016C354.131 77.4 354.915 77.384 355.331 76.968C355.779 76.552 356.003 75.8 356.003 74.712V71.256C356.003 71.032 355.971 70.792 355.907 70.536C355.843 70.248 355.699 70.008 355.475 69.816C355.283 69.592 354.979 69.464 354.563 69.432C354.179 69.368 353.651 69.448 352.979 69.672V77.016Z" fill="white"/>
<path d="M398.76 69.144H400.104L401.16 56.952H405.96L402.984 70.488L405.96 81H401.16L399.624 71.592H398.76V69.144ZM394.44 57H398.76V81H394.44V57ZM418.899 75.048C418.899 76.328 418.803 77.368 418.611 78.168C418.419 78.968 418.099 79.592 417.651 80.04C417.235 80.456 416.659 80.744 415.923 80.904C415.219 81.032 414.355 81.096 413.331 81.096C412.371 81.096 411.507 81.032 410.739 80.904C410.003 80.744 409.379 80.44 408.867 79.992C408.355 79.512 407.971 78.856 407.715 78.024C407.459 77.16 407.331 76.008 407.331 74.568V62.28C407.331 61.224 407.475 60.344 407.763 59.64C408.051 58.936 408.451 58.392 408.963 58.008C409.475 57.592 410.083 57.304 410.787 57.144C411.523 56.952 412.307 56.856 413.139 56.856C414.899 56.856 416.291 57.24 417.315 58.008C418.371 58.744 418.899 60.168 418.899 62.28V67.224V75.048ZM413.091 60.696C412.355 60.696 411.907 60.872 411.747 61.224C411.587 61.576 411.507 62.152 411.507 62.952V74.424C411.507 75.448 411.619 76.184 411.843 76.632C412.067 77.048 412.515 77.272 413.187 77.304C413.859 77.272 414.275 77.048 414.435 76.632C414.627 76.184 414.723 75.448 414.723 74.424V67.224V62.952C414.723 62.12 414.627 61.544 414.435 61.224C414.275 60.872 413.827 60.696 413.091 60.696ZM429.016 57H433.336V81H429.016V57ZM421.768 57H426.088V81H421.768V57ZM432.328 72.36L423.208 72.216V67.944H432.328V72.36ZM439.086 57H443.406V81H439.086V57ZM447.054 61.416L435.486 61.272V57H447.054V61.416ZM456.437 77.976H456.149C456.021 78.936 455.717 79.688 455.237 80.232C454.789 80.744 454.053 81 453.029 81C451.621 81 450.645 80.584 450.101 79.752C449.557 78.888 449.285 77.752 449.285 76.344L449.237 67.656V66.888L449.285 61.656C449.285 60.248 449.557 59.128 450.101 58.296C450.645 57.432 451.621 57 453.029 57C454.053 57 454.789 57.272 455.237 57.816C455.717 58.328 456.021 59.064 456.149 60.024H456.437V57H460.757V81H456.437V77.976ZM456.437 60.984C455.317 60.6 454.533 60.616 454.085 61.032C453.637 61.448 453.413 62.2 453.413 63.288V74.712C453.413 75.8 453.637 76.552 454.085 76.968C454.533 77.384 455.317 77.4 456.437 77.016V60.984ZM467.948 69.144H469.292L470.348 56.952H475.148L472.172 70.488L475.148 81H470.348L468.812 71.592H467.948V69.144ZM463.628 57H467.948V81H463.628V57ZM480.195 57H484.515V81H480.195V57ZM488.163 61.416L476.595 61.272V57H488.163V61.416ZM507.338 81.048H503.018V57H507.338V81.048ZM494.666 66.504C494.954 66.344 495.258 66.2 495.578 66.072C495.866 65.976 496.202 65.896 496.586 65.832C496.97 65.736 497.37 65.688 497.786 65.688C498.17 65.688 498.602 65.736 499.082 65.832C499.562 65.928 500.01 66.12 500.426 66.408C500.842 66.696 501.194 67.112 501.482 67.656C501.77 68.168 501.914 68.84 501.914 69.672L501.866 76.344C501.866 77.784 501.402 78.92 500.474 79.752C499.546 80.584 498.122 81 496.202 81H490.346V57H494.666V66.504ZM494.666 77.016C495.818 77.4 496.602 77.384 497.018 76.968C497.466 76.552 497.69 75.8 497.69 74.712V71.256C497.69 71.032 497.658 70.792 497.594 70.536C497.53 70.248 497.386 70.008 497.162 69.816C496.97 69.592 496.666 69.464 496.25 69.432C495.866 69.368 495.338 69.448 494.666 69.672V77.016Z" fill="white"/>
<path d="M542.688 57H547.008V81H542.688V57ZM535.44 57H539.76V81H535.44V57ZM546 61.416L536.88 61.272V57H546V61.416ZM561.446 75.048C561.446 76.328 561.35 77.368 561.158 78.168C560.966 78.968 560.646 79.592 560.198 80.04C559.782 80.456 559.206 80.744 558.47 80.904C557.766 81.032 556.902 81.096 555.878 81.096C554.918 81.096 554.054 81.032 553.286 80.904C552.55 80.744 551.926 80.44 551.414 79.992C550.902 79.512 550.518 78.856 550.262 78.024C550.006 77.16 549.878 76.008 549.878 74.568V62.28C549.878 61.224 550.022 60.344 550.31 59.64C550.598 58.936 550.998 58.392 551.51 58.008C552.022 57.592 552.63 57.304 553.334 57.144C554.07 56.952 554.854 56.856 555.686 56.856C557.446 56.856 558.838 57.24 559.862 58.008C560.918 58.744 561.446 60.168 561.446 62.28V67.224V75.048ZM555.638 60.696C554.902 60.696 554.454 60.872 554.294 61.224C554.134 61.576 554.054 62.152 554.054 62.952V74.424C554.054 75.448 554.166 76.184 554.39 76.632C554.614 77.048 555.062 77.272 555.734 77.304C556.406 77.272 556.822 77.048 556.982 76.632C557.174 76.184 557.27 75.448 557.27 74.424V67.224V62.952C557.27 62.12 557.174 61.544 556.982 61.224C556.822 60.872 556.374 60.696 555.638 60.696ZM564.315 86.136V57H568.635V60.024H568.923C569.051 59.064 569.339 58.328 569.787 57.816C570.267 57.272 571.019 57 572.043 57C573.451 57 574.411 57.432 574.923 58.296C575.467 59.128 575.755 60.248 575.787 61.656L575.835 66.888V67.656L575.787 76.344C575.787 77.752 575.515 78.888 574.971 79.752C574.427 80.584 573.451 81 572.043 81C571.019 81 570.267 80.744 569.787 80.232C569.339 79.688 569.051 78.936 568.923 77.976H568.635V86.136H564.315ZM568.635 77.016C569.755 77.4 570.539 77.384 570.987 76.968C571.435 76.552 571.659 75.8 571.659 74.712V63.288C571.659 62.2 571.435 61.448 570.987 61.032C570.539 60.616 569.755 60.6 568.635 60.984V77.016ZM581.586 57H585.906V81H581.586V57ZM589.554 61.416L577.986 61.272V57H589.554V61.416ZM607.193 62.328C607.193 62.136 607.161 61.912 607.097 61.656C607.033 61.368 606.889 61.128 606.665 60.936C606.473 60.712 606.169 60.584 605.753 60.552C605.369 60.488 604.841 60.568 604.169 60.792V76.584C604.841 76.808 605.369 76.904 605.753 76.872C606.169 76.808 606.473 76.68 606.665 76.488C606.889 76.264 607.033 76.024 607.097 75.768C607.161 75.48 607.193 75.24 607.193 75.048V62.328ZM599.417 60.792C598.745 60.568 598.201 60.488 597.785 60.552C597.401 60.584 597.113 60.712 596.921 60.936C596.729 61.128 596.601 61.368 596.537 61.656C596.473 61.912 596.441 62.136 596.441 62.328V75.048C596.441 75.24 596.473 75.48 596.537 75.768C596.601 76.024 596.729 76.264 596.921 76.488C597.113 76.68 597.401 76.808 597.785 76.872C598.201 76.904 598.745 76.808 599.417 76.584V60.792ZM607.625 56.808C608.361 56.712 608.985 56.76 609.497 56.952C610.041 57.112 610.473 57.384 610.793 57.768C611.145 58.12 611.401 58.568 611.561 59.112C611.753 59.624 611.849 60.184 611.849 60.792V76.776C611.817 78.152 611.401 79.24 610.601 80.04C609.833 80.808 608.841 81.144 607.625 81.048C606.985 80.984 606.457 80.776 606.041 80.424C605.625 80.04 605.305 79.624 605.081 79.176C604.825 78.696 604.633 78.136 604.505 77.496H604.169V87.72H599.417V77.496H599.177C599.049 78.136 598.857 78.696 598.601 79.176C598.377 79.624 598.057 80.04 597.641 80.424C597.257 80.776 596.729 80.984 596.057 81.048C594.809 81.144 593.785 80.808 592.985 80.04C592.185 79.272 591.769 78.216 591.737 76.872V60.792C591.769 59.576 592.137 58.568 592.841 57.768C593.545 56.968 594.617 56.648 596.057 56.808C596.793 56.872 597.353 57.08 597.737 57.432C598.153 57.752 598.473 58.088 598.697 58.44C598.921 58.888 599.081 59.368 599.177 59.88H599.417V53.784H604.169V59.88H604.505C604.569 59.368 604.713 58.904 604.937 58.488C605.161 58.136 605.481 57.8 605.897 57.48C606.313 57.128 606.889 56.904 607.625 56.808ZM626.274 75.048C626.274 76.328 626.178 77.368 625.986 78.168C625.794 78.968 625.474 79.592 625.026 80.04C624.61 80.456 624.034 80.744 623.298 80.904C622.594 81.032 621.73 81.096 620.706 81.096C619.746 81.096 618.882 81.032 618.114 80.904C617.378 80.744 616.754 80.44 616.242 79.992C615.73 79.512 615.346 78.856 615.09 78.024C614.834 77.16 614.706 76.008 614.706 74.568V62.28C614.706 61.224 614.85 60.344 615.138 59.64C615.426 58.936 615.826 58.392 616.338 58.008C616.85 57.592 617.458 57.304 618.162 57.144C618.898 56.952 619.682 56.856 620.514 56.856C622.274 56.856 623.666 57.24 624.69 58.008C625.746 58.744 626.274 60.168 626.274 62.28V67.224V75.048ZM620.466 60.696C619.73 60.696 619.282 60.872 619.122 61.224C618.962 61.576 618.882 62.152 618.882 62.952V74.424C618.882 75.448 618.994 76.184 619.218 76.632C619.442 77.048 619.89 77.272 620.562 77.304C621.234 77.272 621.65 77.048 621.81 76.632C622.002 76.184 622.098 75.448 622.098 74.424V67.224V62.952C622.098 62.12 622.002 61.544 621.81 61.224C621.65 60.872 621.202 60.696 620.466 60.696ZM636.535 61.368L635.143 61.32L634.999 65.544C634.839 69.032 634.679 71.832 634.519 73.944C634.359 76.024 634.055 77.608 633.607 78.696C633.191 79.784 632.567 80.472 631.735 80.76C630.903 81.048 629.767 81.144 628.327 81.048L627.703 81V76.632C628.087 76.632 628.407 76.648 628.663 76.68C628.951 76.712 629.191 76.664 629.383 76.536C629.607 76.376 629.783 76.104 629.911 75.72C630.071 75.304 630.215 74.696 630.343 73.896C630.471 73.096 630.583 72.056 630.679 70.776C630.807 69.464 630.919 67.832 631.015 65.88L631.447 57H640.855V81H636.535V61.368ZM651.449 66.552H651.113L648.041 80.952V81H643.721V57H648.041L647.609 71.304H647.945L650.921 57L650.969 57.576V57H655.289V81H650.969L651.449 66.552ZM669.727 75.048C669.727 76.328 669.631 77.368 669.439 78.168C669.247 78.968 668.927 79.592 668.479 80.04C668.063 80.456 667.487 80.744 666.751 80.904C666.047 81.032 665.183 81.096 664.159 81.096C663.199 81.096 662.335 81.032 661.567 80.904C660.831 80.744 660.207 80.44 659.695 79.992C659.183 79.512 658.799 78.856 658.543 78.024C658.287 77.16 658.159 76.008 658.159 74.568V62.28C658.159 61.224 658.303 60.344 658.591 59.64C658.879 58.936 659.279 58.392 659.791 58.008C660.303 57.592 660.911 57.304 661.615 57.144C662.351 56.952 663.135 56.856 663.967 56.856C665.727 56.856 667.119 57.24 668.143 58.008C669.199 58.744 669.727 60.168 669.727 62.28V67.224V75.048ZM663.919 60.696C663.183 60.696 662.735 60.872 662.575 61.224C662.415 61.576 662.335 62.152 662.335 62.952V74.424C662.335 75.448 662.447 76.184 662.671 76.632C662.895 77.048 663.343 77.272 664.015 77.304C664.687 77.272 665.103 77.048 665.263 76.632C665.455 76.184 665.551 75.448 665.551 74.424V67.224V62.952C665.551 62.12 665.455 61.544 665.263 61.224C665.103 60.872 664.655 60.696 663.919 60.696Z" fill="white"/>
<path d="M710.008 75.048C710.008 76.328 709.912 77.368 709.72 78.168C709.528 78.968 709.208 79.592 708.76 80.04C708.344 80.456 707.768 80.744 707.032 80.904C706.328 81.032 705.464 81.096 704.44 81.096C703.48 81.096 702.616 81.032 701.848 80.904C701.112 80.744 700.488 80.44 699.976 79.992C699.464 79.512 699.08 78.856 698.824 78.024C698.568 77.16 698.44 76.008 698.44 74.568V62.28C698.44 61.224 698.584 60.344 698.872 59.64C699.16 58.936 699.56 58.392 700.072 58.008C700.584 57.592 701.192 57.304 701.896 57.144C702.632 56.952 703.416 56.856 704.248 56.856C706.008 56.856 707.4 57.24 708.424 58.008C709.48 58.744 710.008 60.168 710.008 62.28V67.224V75.048ZM704.2 60.696C703.464 60.696 703.016 60.872 702.856 61.224C702.696 61.576 702.616 62.152 702.616 62.952V74.424C702.616 75.448 702.728 76.184 702.952 76.632C703.176 77.048 703.624 77.272 704.296 77.304C704.968 77.272 705.384 77.048 705.544 76.632C705.736 76.184 705.832 75.448 705.832 74.424V67.224V62.952C705.832 62.12 705.736 61.544 705.544 61.224C705.384 60.872 704.936 60.696 704.2 60.696ZM716.862 60.12C716.862 59.512 716.99 59 717.246 58.584C717.534 58.136 717.886 57.784 718.302 57.528C718.718 57.272 719.166 57.096 719.646 57C720.126 56.904 720.606 56.904 721.086 57C721.566 57.096 721.998 57.272 722.382 57.528C722.798 57.752 723.15 58.12 723.438 58.632C723.758 59.112 723.998 59.752 724.158 60.552C724.35 61.32 724.446 62.28 724.446 63.432V75.24C724.446 77.352 723.95 78.856 722.958 79.752C721.998 80.648 720.558 81.064 718.638 81C716.718 80.936 715.278 80.488 714.318 79.656C713.358 78.824 712.878 77.352 712.878 75.24V64.92C712.91 63.128 712.942 61.608 712.974 60.36C713.006 59.08 713.134 57.992 713.358 57.096C713.614 56.2 714.03 55.432 714.605 54.792C715.182 54.152 716.046 53.544 717.198 52.968C717.646 52.744 718.03 52.552 718.35 52.392C718.702 52.232 718.974 52.056 719.166 51.864C719.39 51.672 719.566 51.448 719.694 51.192C719.854 50.904 719.966 50.552 720.03 50.136H724.062C723.998 50.648 723.934 51.192 723.87 51.768C723.806 52.344 723.646 52.92 723.39 53.496C723.134 54.04 722.734 54.552 722.19 55.032C721.678 55.512 720.926 55.896 719.934 56.184C719.582 56.28 719.214 56.408 718.83 56.568C718.446 56.728 718.078 56.952 717.726 57.24C717.406 57.496 717.134 57.864 716.91 58.344C716.686 58.792 716.574 59.384 716.574 60.12H716.862ZM718.686 77.16C719.422 77.16 719.87 76.936 720.03 76.488C720.19 76.008 720.27 75.368 720.27 74.568V63.576C720.27 62.552 720.158 61.848 719.934 61.464C719.71 61.048 719.262 60.824 718.59 60.792C717.918 60.824 717.486 61.048 717.294 61.464C717.134 61.848 717.054 62.552 717.054 63.576V74.568C717.054 75.4 717.134 76.04 717.294 76.488C717.486 76.936 717.95 77.16 718.686 77.16ZM738.883 75.048C738.883 76.328 738.787 77.368 738.595 78.168C738.403 78.968 738.083 79.592 737.635 80.04C737.219 80.456 736.643 80.744 735.907 80.904C735.203 81.032 734.339 81.096 733.315 81.096C732.355 81.096 731.491 81.032 730.723 80.904C729.987 80.744 729.363 80.44 728.851 79.992C728.339 79.512 727.955 78.856 727.699 78.024C727.443 77.16 727.315 76.008 727.315 74.568V62.28C727.315 61.224 727.459 60.344 727.747 59.64C728.035 58.936 728.435 58.392 728.947 58.008C729.459 57.592 730.067 57.304 730.771 57.144C731.507 56.952 732.291 56.856 733.123 56.856C734.883 56.856 736.275 57.24 737.299 58.008C738.355 58.744 738.883 60.168 738.883 62.28V67.224V75.048ZM733.075 60.696C732.339 60.696 731.891 60.872 731.731 61.224C731.571 61.576 731.491 62.152 731.491 62.952V74.424C731.491 75.448 731.603 76.184 731.827 76.632C732.051 77.048 732.499 77.272 733.171 77.304C733.843 77.272 734.259 77.048 734.419 76.632C734.611 76.184 734.707 75.448 734.707 74.424V67.224V62.952C734.707 62.12 734.611 61.544 734.419 61.224C734.259 60.872 733.811 60.696 733.075 60.696ZM762.717 81L763.197 61.032H762.573L760.557 80.952L754.605 81L752.781 61.032H752.157L752.541 81H748.221V56.952H756.381L757.485 72.984H757.869L759.357 56.952H767.037V81H762.717ZM777.172 57H781.492V81H777.172V57ZM769.924 57H774.244V81H769.924V57ZM780.484 72.36L771.364 72.216V67.944H780.484V72.36ZM790.17 77.208C790.842 77.176 791.258 76.952 791.418 76.536C791.61 76.088 791.706 75.352 791.706 74.328H795.882V75.048C795.882 76.328 795.786 77.368 795.594 78.168C795.402 78.936 795.082 79.544 794.634 79.992C794.218 80.408 793.642 80.68 792.906 80.808C792.202 80.936 791.338 81 790.314 81C789.354 81 788.49 80.936 787.722 80.808C786.986 80.68 786.362 80.392 785.85 79.944C785.37 79.496 785.002 78.856 784.746 78.024C784.49 77.16 784.362 76.008 784.362 74.568V62.328C784.362 60.216 784.858 58.776 785.85 58.008C786.874 57.208 788.314 56.808 790.17 56.808C791.994 56.808 793.402 57.208 794.394 58.008C795.386 58.776 795.882 60.216 795.882 62.328V69.864H788.49V74.472C788.49 75.496 788.602 76.2 788.826 76.584C789.05 76.968 789.498 77.176 790.17 77.208ZM791.706 66.504V63C791.706 62.168 791.626 61.576 791.466 61.224C791.306 60.84 790.842 60.648 790.074 60.648C789.338 60.648 788.89 60.84 788.73 61.224C788.57 61.608 788.49 62.2 788.49 63V66.504H791.706Z" fill="white"/>
<path d="M64.4991 40L49 55.3714V69H51.2147V56.28L64.4991 43.1048L77.7853 56.28V69H80V55.3714L64.4991 40Z" fill="white"/>
<path d="M62.2197 61.7916H63.8433V65.6669C63.8433 66.1768 63.7926 66.5847 63.6911 66.8906C63.5896 67.1966 63.4431 67.4345 63.2514 67.6045C63.071 67.7745 62.8455 67.8878 62.5749 67.9444C62.3043 68.0011 61.9998 68.0294 61.6616 68.0294C61.3233 68.0294 61.0133 68.0011 60.7314 67.9444C60.4608 67.8878 60.2297 67.7745 60.038 67.6045C59.8463 67.4345 59.6997 67.1966 59.5983 66.8906C59.4968 66.5734 59.446 66.1598 59.446 65.6499V57.8823C59.446 57.1345 59.6434 56.6132 60.038 56.3186C60.4326 56.0127 60.9738 55.8597 61.6616 55.8597C62.3494 55.8597 62.8849 56.0127 63.2683 56.3186C63.6516 56.6132 63.8433 57.1345 63.8433 57.8823V59.2251H62.2197V58.4602C62.2197 58.3129 62.2141 58.1769 62.2028 58.0523C62.1915 57.9163 62.1633 57.803 62.1182 57.7124C62.0844 57.6104 62.028 57.5311 61.9491 57.4744C61.8815 57.4177 61.7856 57.3894 61.6616 57.3894C61.4023 57.3894 61.2388 57.4971 61.1711 57.7124C61.1035 57.9277 61.0697 58.1769 61.0697 58.4602V65.2929C61.0697 65.6215 61.1035 65.9105 61.1711 66.1598C61.2388 66.3977 61.4023 66.5167 61.6616 66.5167C61.9209 66.5167 62.0788 66.3977 62.1351 66.1598C62.1915 65.9105 62.2197 65.6159 62.2197 65.2759V61.7916ZM63.8433 61.1287V62.4375L61.4756 62.8624V61.1287H63.8433Z" fill="white"/>
<path d="M69.2775 65.6499C69.2775 66.1598 69.2212 66.5734 69.1084 66.8906C69.0069 67.1966 68.8604 67.4345 68.6687 67.6045C68.477 67.7745 68.2459 67.8878 67.9753 67.9444C67.716 68.0011 67.4228 68.0294 67.0958 68.0294C66.7576 68.0294 66.4475 68.0011 66.1656 67.9444C65.895 67.8878 65.6583 67.7745 65.4553 67.6045C65.2636 67.4345 65.117 67.1966 65.0156 66.8906C64.9141 66.5734 64.8634 66.1598 64.8634 65.6499V58.0693C64.8634 57.3214 65.0607 56.7662 65.4553 56.4036C65.8499 56.0297 66.3911 55.8427 67.0789 55.8427C67.7667 55.8427 68.3023 56.0297 68.6856 56.4036C69.069 56.7662 69.2606 57.3214 69.2606 58.0693L69.2775 65.6499ZM67.0789 57.3724C66.8309 57.3724 66.673 57.4857 66.6054 57.7124C66.5377 57.939 66.5039 58.1939 66.5039 58.4772V65.2589C66.5039 65.6215 66.5321 65.9218 66.5884 66.1598C66.6561 66.3977 66.8196 66.5167 67.0789 66.5167C67.3382 66.5167 67.4961 66.3977 67.5525 66.1598C67.6088 65.9218 67.637 65.6215 67.637 65.2589V58.4772C67.637 58.3299 67.6314 58.1939 67.6201 58.0693C67.6088 57.9333 67.5806 57.8143 67.5355 57.7124C67.5017 57.6104 67.4453 57.5311 67.3664 57.4744C67.2988 57.4064 67.2029 57.3724 67.0789 57.3724Z" fill="white"/>
<path d="M50.88 81.464V83H48.72V67.112H50.88V72.488H51C51.064 72.008 51.232 71.64 51.504 71.384C51.792 71.128 52.144 70.992 52.56 70.976C53.312 70.944 53.816 71.152 54.072 71.6C54.328 72.032 54.456 72.6 54.456 73.304L54.48 83H52.368V74.12C52.368 73.576 52.256 73.2 52.032 72.992C51.824 72.784 51.44 72.776 50.88 72.968V75.848V80.984V81.464ZM61.6993 79.952C61.6993 80.592 61.6273 81.12 61.4833 81.536C61.3393 81.952 61.1393 82.28 60.8833 82.52C60.6433 82.76 60.3393 82.928 59.9713 83.024C59.6193 83.12 59.2273 83.168 58.7953 83.168C58.3473 83.168 57.9393 83.12 57.5713 83.024C57.2193 82.928 56.9153 82.76 56.6593 82.52C56.4193 82.28 56.2353 81.952 56.1073 81.536C55.9793 81.12 55.9153 80.592 55.9153 79.952V73.496C55.9153 72.968 55.9793 72.528 56.1073 72.176C56.2353 71.824 56.4193 71.544 56.6593 71.336C56.9153 71.128 57.2193 70.984 57.5713 70.904C57.9393 70.808 58.3473 70.76 58.7953 70.76C59.6593 70.744 60.3553 70.936 60.8833 71.336C61.4273 71.72 61.6993 72.44 61.6993 73.496V76.112V79.952ZM58.7953 72.68C58.4593 72.68 58.2433 72.784 58.1473 72.992C58.0513 73.2 58.0033 73.48 58.0033 73.832V79.88C58.0033 80.392 58.0513 80.752 58.1473 80.96C58.2433 81.168 58.4593 81.272 58.7953 81.272C59.1473 81.272 59.3713 81.168 59.4673 80.96C59.5633 80.752 59.6113 80.392 59.6113 79.88V76.112V73.832C59.6113 73.464 59.5633 73.184 59.4673 72.992C59.3713 72.784 59.1473 72.68 58.7953 72.68ZM65.2941 81.464V83H63.1341V71H65.2941V72.488H65.4141C65.4781 72.008 65.6461 71.64 65.9181 71.384C66.2061 71.128 66.5581 70.992 66.9741 70.976C67.7261 70.944 68.2301 71.152 68.4861 71.6C68.7421 72.032 68.8701 72.6 68.8701 73.304L68.8941 83H66.7821V74.12C66.7821 73.576 66.6701 73.2 66.4461 72.992C66.2381 72.784 65.8541 72.776 65.2941 72.968V75.848V80.984V81.464ZM68.7981 81.464V82.976H67.2381V72.512L68.7981 72.488H68.9181C68.9821 72.008 69.1501 71.64 69.4221 71.384C69.7101 71.128 70.0621 70.992 70.4781 70.976C71.2301 70.944 71.7341 71.152 71.9901 71.6C72.2461 72.032 72.3741 72.6 72.3741 73.304L72.3981 83H70.2861V74.12C70.2861 73.576 70.1741 73.2 69.9501 72.992C69.7421 72.784 69.3581 72.776 68.7981 72.968V75.848V80.984V81.464ZM76.749 81.104C77.085 81.088 77.293 80.976 77.373 80.768C77.469 80.544 77.517 80.176 77.517 79.664H79.605V80.024C79.605 80.664 79.557 81.184 79.461 81.584C79.365 81.968 79.205 82.272 78.981 82.496C78.773 82.704 78.485 82.84 78.117 82.904C77.765 82.968 77.333 83 76.821 83C76.341 83 75.909 82.968 75.525 82.904C75.157 82.84 74.845 82.696 74.589 82.472C74.349 82.248 74.165 81.928 74.037 81.512C73.909 81.08 73.845 80.504 73.845 79.784V73.664C73.845 72.608 74.085 71.896 74.565 71.528C75.061 71.144 75.789 70.944 76.749 70.928C77.693 70.912 78.405 71.104 78.885 71.504C79.365 71.888 79.605 72.608 79.605 73.664V77.432H75.909V79.736C75.909 80.248 75.965 80.6 76.077 80.792C76.189 80.984 76.413 81.088 76.749 81.104ZM77.517 75.752V74C77.517 73.584 77.477 73.288 77.397 73.112C77.317 72.936 77.085 72.848 76.701 72.848C76.333 72.848 76.109 72.944 76.029 73.136C75.949 73.312 75.909 73.6 75.909 74V75.752H77.517Z" fill="#AF2F2F"/>
<rect x="1659" y="22" width="130" height="40" fill="#AF2F2F"/>
<path d="M1707.76 63.536C1707.76 64.496 1707.68 65.276 1707.54 65.876C1707.4 66.476 1707.16 66.944 1706.82 67.28C1706.51 67.592 1706.08 67.808 1705.52 67.928C1705 68.024 1704.35 68.072 1703.58 68.072C1702.86 68.072 1702.21 68.024 1701.64 67.928C1701.08 67.808 1700.62 67.58 1700.23 67.244C1699.85 66.884 1699.56 66.392 1699.37 65.768C1699.18 65.12 1699.08 64.256 1699.08 63.176V53.96C1699.08 53.168 1699.19 52.508 1699.4 51.98C1699.62 51.452 1699.92 51.044 1700.3 50.756C1700.69 50.444 1701.14 50.228 1701.67 50.108C1702.22 49.964 1702.81 49.892 1703.44 49.892C1704.76 49.892 1705.8 50.18 1706.57 50.756C1707.36 51.308 1707.76 52.376 1707.76 53.96V57.668V63.536ZM1703.4 52.772C1702.85 52.772 1702.51 52.904 1702.39 53.168C1702.27 53.432 1702.21 53.864 1702.21 54.464V63.068C1702.21 63.836 1702.3 64.388 1702.46 64.724C1702.63 65.036 1702.97 65.204 1703.47 65.228C1703.98 65.204 1704.29 65.036 1704.41 64.724C1704.55 64.388 1704.62 63.836 1704.62 63.068V57.668V54.464C1704.62 53.84 1704.55 53.408 1704.41 53.168C1704.29 52.904 1703.95 52.772 1703.4 52.772ZM1712.9 52.34C1712.9 51.884 1712.99 51.5 1713.18 51.188C1713.4 50.852 1713.66 50.588 1713.98 50.396C1714.29 50.204 1714.62 50.072 1714.98 50C1715.34 49.928 1715.7 49.928 1716.06 50C1716.42 50.072 1716.75 50.204 1717.04 50.396C1717.35 50.564 1717.61 50.84 1717.83 51.224C1718.07 51.584 1718.25 52.064 1718.37 52.664C1718.51 53.24 1718.58 53.96 1718.58 54.824V63.68C1718.58 65.264 1718.21 66.392 1717.47 67.064C1716.75 67.736 1715.67 68.048 1714.23 68C1712.79 67.952 1711.71 67.616 1710.99 66.992C1710.27 66.368 1709.91 65.264 1709.91 63.68V55.94C1709.93 54.596 1709.96 53.456 1709.98 52.52C1710 51.56 1710.1 50.744 1710.27 50.072C1710.46 49.4 1710.77 48.824 1711.2 48.344C1711.64 47.864 1712.28 47.408 1713.15 46.976C1713.48 46.808 1713.77 46.664 1714.01 46.544C1714.28 46.424 1714.48 46.292 1714.62 46.148C1714.79 46.004 1714.92 45.836 1715.02 45.644C1715.14 45.428 1715.22 45.164 1715.27 44.852H1718.3C1718.25 45.236 1718.2 45.644 1718.15 46.076C1718.1 46.508 1717.98 46.94 1717.79 47.372C1717.6 47.78 1717.3 48.164 1716.89 48.524C1716.51 48.884 1715.94 49.172 1715.2 49.388C1714.94 49.46 1714.66 49.556 1714.37 49.676C1714.08 49.796 1713.81 49.964 1713.54 50.18C1713.3 50.372 1713.1 50.648 1712.93 51.008C1712.76 51.344 1712.68 51.788 1712.68 52.34H1712.9ZM1714.26 65.12C1714.82 65.12 1715.15 64.952 1715.27 64.616C1715.39 64.256 1715.45 63.776 1715.45 63.176V54.932C1715.45 54.164 1715.37 53.636 1715.2 53.348C1715.03 53.036 1714.7 52.868 1714.19 52.844C1713.69 52.868 1713.36 53.036 1713.22 53.348C1713.1 53.636 1713.04 54.164 1713.04 54.932V63.176C1713.04 63.8 1713.1 64.28 1713.22 64.616C1713.36 64.952 1713.71 65.12 1714.26 65.12ZM1726.28 60.764H1729.38V63.536C1729.38 64.496 1729.3 65.276 1729.16 65.876C1729.02 66.476 1728.78 66.944 1728.44 67.28C1728.13 67.592 1727.7 67.808 1727.14 67.928C1726.62 68.024 1725.97 68.072 1725.2 68.072C1724.48 68.072 1723.84 68.024 1723.29 67.928C1722.74 67.808 1722.27 67.58 1721.89 67.244C1721.5 66.884 1721.22 66.392 1721.02 65.768C1720.83 65.12 1720.74 64.268 1720.74 63.212V53.924C1720.74 52.34 1721.1 51.26 1721.82 50.684C1722.56 50.108 1723.65 49.844 1725.09 49.892C1725.81 49.892 1726.44 49.964 1726.96 50.108C1727.49 50.228 1727.94 50.444 1728.3 50.756C1728.66 51.044 1728.92 51.452 1729.09 51.98C1729.28 52.484 1729.38 53.132 1729.38 53.924V56.768H1726.28V54.428C1726.28 53.804 1726.21 53.372 1726.06 53.132C1725.94 52.892 1725.61 52.772 1725.06 52.772C1724.5 52.772 1724.16 52.904 1724.01 53.168C1723.89 53.408 1723.83 53.828 1723.83 54.428V63.068C1723.83 63.836 1723.92 64.388 1724.08 64.724C1724.25 65.06 1724.59 65.228 1725.09 65.228C1725.62 65.228 1725.94 65.06 1726.06 64.724C1726.21 64.388 1726.28 63.836 1726.28 63.068V60.764ZM1740.57 50C1740.55 50.288 1740.52 50.552 1740.5 50.792C1740.47 51.008 1740.45 51.26 1740.43 51.548C1740.4 51.812 1740.35 52.148 1740.28 52.556C1740.23 52.94 1740.16 53.48 1740.07 54.176C1739.99 54.848 1739.89 55.688 1739.74 56.696C1739.62 57.704 1739.47 58.964 1739.27 60.476C1738.96 62.9 1738.7 64.916 1738.48 66.524C1738.27 68.108 1738 69.368 1737.69 70.304C1737.4 71.24 1737.02 71.9 1736.54 72.284C1736.06 72.668 1735.39 72.86 1734.52 72.86C1734.11 72.86 1733.67 72.836 1733.19 72.788C1732.73 72.74 1732.42 72.692 1732.25 72.644L1731.39 72.428V69.26C1731.63 69.308 1731.87 69.356 1732.11 69.404C1732.33 69.428 1732.55 69.452 1732.79 69.476C1733.06 69.5 1733.32 69.512 1733.59 69.512C1733.92 69.512 1734.19 69.416 1734.38 69.224C1734.59 69.032 1734.79 68.624 1734.95 68C1735.15 67.352 1735.33 66.44 1735.49 65.264C1735.69 64.064 1735.91 62.468 1736.18 60.476L1737.37 50H1740.57ZM1732.9 68L1730.81 50H1733.91L1736 68H1732.9ZM1744.77 68L1745.31 70.376H1741.64V64.94H1742.54C1742.71 64.7 1742.85 64.436 1742.97 64.148C1743.09 63.86 1743.2 63.404 1743.3 62.78C1743.39 62.132 1743.49 61.256 1743.59 60.152C1743.68 59.048 1743.79 57.56 1743.91 55.688C1743.98 54.584 1744.03 53.576 1744.05 52.664C1744.1 51.752 1744.15 50.864 1744.2 50H1751.51V64.94H1752.44V70.376H1748.77L1749.27 68H1744.77ZM1748.63 64.94V53.348H1746.97C1746.95 53.708 1746.92 54.08 1746.9 54.464C1746.9 54.848 1746.89 55.256 1746.86 55.688C1746.81 56.792 1746.77 57.848 1746.72 58.856C1746.67 59.864 1746.6 60.788 1746.5 61.628C1746.41 62.444 1746.29 63.14 1746.14 63.716C1746.02 64.292 1745.87 64.7 1745.67 64.94H1748.63ZM1759.86 57.164H1759.61L1757.3 67.964V68H1754.06V50H1757.3L1756.98 60.728H1757.23L1759.46 50L1759.5 50.432V50H1762.74V68H1759.5L1759.86 57.164ZM1767.05 50H1770.29V68H1767.05V50ZM1773.03 53.312L1764.35 53.204V50H1773.03V53.312ZM1777.91 57.128C1778.12 57.008 1778.35 56.9 1778.59 56.804C1778.81 56.732 1779.06 56.672 1779.35 56.624C1779.63 56.552 1779.93 56.516 1780.25 56.516C1780.53 56.516 1780.86 56.552 1781.22 56.624C1781.58 56.696 1781.91 56.84 1782.23 57.056C1782.54 57.272 1782.8 57.584 1783.02 57.992C1783.23 58.376 1783.34 58.88 1783.34 59.504L1783.31 64.508C1783.31 65.588 1782.96 66.44 1782.26 67.064C1781.57 67.688 1780.5 68 1779.06 68H1774.67V50H1777.91V57.128ZM1777.91 65.012C1778.77 65.3 1779.36 65.288 1779.67 64.976C1780.01 64.664 1780.17 64.1 1780.17 63.284V60.692C1780.17 60.524 1780.15 60.344 1780.1 60.152C1780.05 59.936 1779.95 59.756 1779.78 59.612C1779.63 59.444 1779.41 59.348 1779.09 59.324C1778.81 59.276 1778.41 59.336 1777.91 59.504V65.012ZM1795.43 50H1798.67V68H1795.43V50ZM1789.99 50H1793.23V68H1789.99V50ZM1797.91 53.312L1791.07 53.204V50H1797.91V53.312ZM1800.82 71.852V50H1804.06V52.268H1804.28C1804.37 51.548 1804.59 50.996 1804.93 50.612C1805.29 50.204 1805.85 50 1806.62 50C1807.67 50 1808.39 50.324 1808.78 50.972C1809.19 51.596 1809.4 52.436 1809.43 53.492L1809.46 57.416V57.992L1809.43 64.508C1809.43 65.564 1809.22 66.416 1808.81 67.064C1808.41 67.688 1807.67 68 1806.62 68C1805.85 68 1805.29 67.808 1804.93 67.424C1804.59 67.016 1804.37 66.452 1804.28 65.732H1804.06V71.852H1800.82ZM1804.06 65.012C1804.9 65.3 1805.49 65.288 1805.83 64.976C1806.16 64.664 1806.33 64.1 1806.33 63.284V54.716C1806.33 53.9 1806.16 53.336 1805.83 53.024C1805.49 52.712 1804.9 52.7 1804.06 52.988V65.012ZM1820.29 63.536C1820.29 64.496 1820.22 65.276 1820.08 65.876C1819.93 66.476 1819.69 66.944 1819.36 67.28C1819.04 67.592 1818.61 67.808 1818.06 67.928C1817.53 68.024 1816.88 68.072 1816.12 68.072C1815.4 68.072 1814.75 68.024 1814.17 67.928C1813.62 67.808 1813.15 67.58 1812.77 67.244C1812.38 66.884 1812.1 66.392 1811.9 65.768C1811.71 65.12 1811.62 64.256 1811.62 63.176V53.96C1811.62 53.168 1811.72 52.508 1811.94 51.98C1812.16 51.452 1812.46 51.044 1812.84 50.756C1813.22 50.444 1813.68 50.228 1814.21 50.108C1814.76 49.964 1815.35 49.892 1815.97 49.892C1817.29 49.892 1818.34 50.18 1819.1 50.756C1819.9 51.308 1820.29 52.376 1820.29 53.96V57.668V63.536ZM1815.94 52.772C1815.38 52.772 1815.05 52.904 1814.93 53.168C1814.81 53.432 1814.75 53.864 1814.75 54.464V63.068C1814.75 63.836 1814.83 64.388 1815 64.724C1815.17 65.036 1815.5 65.204 1816.01 65.228C1816.51 65.204 1816.82 65.036 1816.94 64.724C1817.09 64.388 1817.16 63.836 1817.16 63.068V57.668V54.464C1817.16 53.84 1817.09 53.408 1816.94 53.168C1816.82 52.904 1816.49 52.772 1815.94 52.772ZM1826.8 65.156C1827.3 65.132 1827.62 64.964 1827.74 64.652C1827.88 64.316 1827.95 63.764 1827.95 62.996H1831.08V63.536C1831.08 64.496 1831.01 65.276 1830.87 65.876C1830.72 66.452 1830.48 66.908 1830.15 67.244C1829.84 67.556 1829.4 67.76 1828.85 67.856C1828.32 67.952 1827.68 68 1826.91 68C1826.19 68 1825.54 67.952 1824.96 67.856C1824.41 67.76 1823.94 67.544 1823.56 67.208C1823.2 66.872 1822.92 66.392 1822.73 65.768C1822.54 65.12 1822.44 64.256 1822.44 63.176V53.996C1822.44 52.412 1822.82 51.332 1823.56 50.756C1824.33 50.156 1825.41 49.856 1826.8 49.856C1828.17 49.856 1829.22 50.156 1829.97 50.756C1830.71 51.332 1831.08 52.412 1831.08 53.996V59.648H1825.54V63.104C1825.54 63.872 1825.62 64.4 1825.79 64.688C1825.96 64.976 1826.3 65.132 1826.8 65.156ZM1827.95 57.128V54.5C1827.95 53.876 1827.89 53.432 1827.77 53.168C1827.65 52.88 1827.3 52.736 1826.73 52.736C1826.18 52.736 1825.84 52.88 1825.72 53.168C1825.6 53.456 1825.54 53.9 1825.54 54.5V57.128H1827.95ZM1836.48 59.108H1837.48L1838.28 49.964H1841.88L1839.64 60.116L1841.88 68H1838.28L1837.12 60.944H1836.48V59.108ZM1833.24 50H1836.48V68H1833.24V50ZM1845.66 50H1848.9V68H1845.66V50ZM1851.64 53.312L1842.96 53.204V50H1851.64V53.312Z" fill="white"/>
<rect x="1692.5" y="41.5" width="166" height="37" stroke="white"/>
<path d="M587.2 628L590.7 413.45H586.15L571.45 627.65L521.05 628L507.05 413.45H502.5L506 628H474.5V383H537.5L545.55 587.4H548.35L559.2 383H618.7V628H587.2ZM725.688 628H690.688L689.288 595.8H670.738L669.338 628H634.338L651.488 383H710.288L725.688 628ZM687.888 560.1L681.938 422.55H679.138L672.488 560.1H687.888ZM776.443 522.65V628H741.443V383H791.143C805.143 383 815.527 386.033 822.293 392.1C829.06 398.167 832.443 406.45 832.443 416.95L832.793 499.55C832.793 505.617 831.743 510.633 829.643 514.6C827.543 518.333 824.977 521.25 821.943 523.35C818.91 525.45 815.643 526.85 812.143 527.55C808.643 528.25 805.493 528.6 802.693 528.6C799.66 528.6 796.51 528.367 793.243 527.9C790.21 527.2 787.41 526.383 784.843 525.45C782.043 524.75 779.243 523.817 776.443 522.65ZM776.443 415.55V496.05C781.343 497.683 785.193 498.383 787.993 498.15C791.027 497.683 793.243 496.75 794.643 495.35C796.277 493.717 797.327 491.967 797.793 490.1C798.26 488 798.493 486.133 798.493 484.5V432.35C798.493 424.417 796.86 418.933 793.593 415.9C790.56 412.867 784.843 412.75 776.443 415.55ZM888.895 493.95H898.695L906.395 383H944.895L923.195 503.75L944.895 628H906.395L895.195 511.8H888.895V493.95ZM853.895 383H888.895V628H853.895V383ZM958.826 383H993.826V628H958.826V383ZM1031.63 418.7L965.126 406.1L962.326 383H1042.83L1031.63 418.7ZM1024.63 517.05H968.276V481.35H1024.63V517.05ZM962.326 628L965.126 604.9L1031.63 592.3L1042.83 628H962.326ZM1133.57 418.7L1109.42 415.2V628H1074.42V414.85L1049.92 418.7V383H1133.57V418.7ZM1207.35 453H1204.9L1182.5 627.65V628H1147.5V383H1182.5L1179.35 557.3H1181.8L1203.5 383H1203.85H1238.85V628H1203.85L1207.35 453ZM1316.3 383H1351.3V628H1316.3V383ZM1259.95 383H1294.95V628H1259.95V383ZM1340.45 565H1273.95V529.3H1340.45V565ZM1372.4 383H1452.9L1441.7 418.7L1407.4 412.4V628H1372.4V383Z" fill="white"/>
<path d="M80.12 802.04C84 802.04 85.88 800.12 86.56 797.2L92.6 798.2C91.44 804.16 87.52 807.4 80.16 807.4C72.2 807.4 66.92 802.64 66.92 793.4C66.92 783.88 72.48 779.4 80.2 779.4C87.56 779.4 91.48 782.76 92.56 788.56L86.52 789.52C85.76 786.76 83.92 784.76 80.2 784.76C75.92 784.76 73.04 787.8 73.04 793.4C73.04 798.92 75.84 802.04 80.12 802.04ZM105.656 807.4C99.5359 807.4 95.6959 803.56 95.6959 797.16C95.6959 790.76 99.4959 787 105.656 787C111.816 787 115.576 790.76 115.576 797.16C115.576 803.56 111.816 807.4 105.656 807.4ZM105.656 802.68C108.296 802.68 109.896 800.76 109.896 797.16C109.896 793.52 108.296 791.72 105.656 791.72C103.056 791.72 101.376 793.48 101.376 797.16C101.376 800.76 103.096 802.68 105.656 802.68ZM127.593 803C129.953 803 131.153 802.24 131.153 800.92C131.153 799.68 130.353 799.08 128.233 799.08H125.073V795.2H128.153C130.073 795.2 130.833 794.48 130.833 793.36C130.833 792.16 129.913 791.4 127.793 791.4C125.233 791.4 123.833 792.72 123.353 794.56L118.273 793.64C119.113 789.52 122.513 787 127.793 787C133.153 787 136.233 789.04 136.233 792.72C136.233 794.68 135.273 796.24 133.393 796.96C135.473 797.56 136.673 799 136.673 801.4C136.673 805.08 133.393 807.4 127.593 807.4C121.873 807.4 118.793 804.96 118.113 800.72L123.313 799.76C123.713 801.72 124.993 803 127.593 803ZM138.249 802H140.329C141.489 801.04 142.209 799.44 142.329 797.32C142.449 795.12 142.449 791.84 142.489 787.4H158.569V802H161.449V812.36H155.929V807H143.769V812.36H138.249V802ZM147.609 797.56C147.489 799.48 146.929 800.92 146.209 802H152.809V792.4H147.689C147.689 794.2 147.689 796.4 147.609 797.56ZM175.676 807V804.8C174.436 806.52 172.436 807.4 170.036 807.4C166.276 807.4 163.356 805.32 163.356 801.56C163.356 797.44 166.196 795.8 170.716 795.48C172.476 795.36 174.156 795.4 175.476 795.44V794.24C175.476 792.36 174.516 791.44 172.636 791.44C170.676 791.44 169.676 792.48 169.236 794.08L164.036 793.16C164.716 789.36 167.836 787 172.636 787C177.676 787 180.996 789.04 180.996 794.2V807H175.676ZM175.476 799.04C174.476 798.96 173.036 798.96 171.796 799.04C170.196 799.16 168.996 799.76 168.996 801.08C168.996 802.44 170.036 803.2 171.676 803.2C173.956 803.2 175.476 802 175.476 800.2V799.04ZM185.721 807V787.4H191.441V794.72H194.361C195.201 789.8 198.681 787 203.961 787C210.121 787 213.881 790.76 213.881 797.16C213.881 803.52 210.121 807.4 203.961 807.4C198.721 807.4 195.161 804.48 194.361 799.52H191.441V807H185.721ZM203.961 802.68C206.601 802.68 208.241 800.8 208.241 797.16C208.241 793.52 206.601 791.72 203.961 791.72C201.361 791.72 199.681 793.48 199.681 797.16C199.681 800.8 201.401 802.68 203.961 802.68ZM225.838 814.76V787.4H231.438V789.8C232.558 788.08 234.718 787 237.318 787C241.998 787 245.558 790.44 245.558 797.04C245.558 803.88 241.718 807.4 236.638 807.4C234.558 807.4 232.798 806.76 231.558 805.6V814.76H225.838ZM231.558 798.76C231.558 801 233.158 802.64 235.678 802.64C238.238 802.64 239.798 800.64 239.798 797.16C239.798 793.76 238.238 791.76 235.678 791.76C233.238 791.76 231.558 793.4 231.558 795.88V798.76ZM267.032 798.52H253.792C253.992 801.48 255.672 802.96 257.952 802.96C260.112 802.96 261.152 801.84 261.672 800.52L266.632 801.44C265.752 804.56 263.112 807.4 257.792 807.4C252.072 807.4 248.352 803.8 248.352 797.2C248.352 790.6 252.472 787 258.072 787C263.512 787 267.112 790.44 267.112 796.64C267.112 797.4 267.072 798.16 267.032 798.52ZM258.072 791.4C255.952 791.4 254.392 792.64 253.912 794.96H261.872C261.632 792.92 260.392 791.4 258.072 791.4ZM270.799 807V787.4H276.519V794.64H278.799L283.279 787.4H289.599L283.639 796.6L289.919 807H283.359L278.839 799.16H276.519V807H270.799ZM294.515 798.6C294.595 795.64 294.635 790.28 294.635 787.4H310.795V807H305.035V792.4H299.835C299.795 794.72 299.755 798.04 299.675 799.88C299.555 805 298.195 807 293.275 807H290.715V802H291.875C293.835 802 294.395 801.32 294.515 798.6ZM327.043 807V804.8C325.803 806.52 323.803 807.4 321.403 807.4C317.643 807.4 314.723 805.32 314.723 801.56C314.723 797.44 317.563 795.8 322.083 795.48C323.843 795.36 325.523 795.4 326.843 795.44V794.24C326.843 792.36 325.883 791.44 324.003 791.44C322.043 791.44 321.043 792.48 320.603 794.08L315.403 793.16C316.083 789.36 319.203 787 324.003 787C329.043 787 332.363 789.04 332.363 794.2V807H327.043ZM326.843 799.04C325.843 798.96 324.403 798.96 323.163 799.04C321.563 799.16 320.363 799.76 320.363 801.08C320.363 802.44 321.403 803.2 323.043 803.2C325.323 803.2 326.843 802 326.843 800.2V799.04ZM337.088 807V787.4H345.488L350.208 800.44L354.648 787.4H363.048V807H357.648V793L352.568 807H347.328L342.248 793.04V807H337.088ZM380.028 807.76C378.068 813.28 376.148 814.76 371.268 814.76H368.628V809.76H370.668C372.428 809.76 373.428 809.32 374.068 807.84L374.148 807.68L365.988 787.4H372.348L377.148 800.68L381.308 787.4H387.268L380.028 807.76ZM403.939 807H398.299V787.4H403.859V799.4L411.139 787.4H417.019V807H411.459V794.88L403.939 807ZM427.858 802H429.938C431.098 801.04 431.818 799.44 431.938 797.32C432.058 795.12 432.058 791.84 432.098 787.4H448.178V802H451.058V812.36H445.538V807H433.378V812.36H427.858V802ZM437.218 797.56C437.098 799.48 436.538 800.92 435.818 802H442.418V792.4H437.298C437.298 794.2 437.298 796.4 437.218 797.56ZM459.525 807H453.885V787.4H459.445V799.4L466.725 787.4H472.605V807H467.045V794.88L459.525 807ZM485.64 803C488 803 489.2 802.24 489.2 800.92C489.2 799.68 488.4 799.08 486.28 799.08H483.12V795.2H486.2C488.12 795.2 488.88 794.48 488.88 793.36C488.88 792.16 487.96 791.4 485.84 791.4C483.28 791.4 481.88 792.72 481.4 794.56L476.32 793.64C477.16 789.52 480.56 787 485.84 787C491.2 787 494.28 789.04 494.28 792.72C494.28 794.68 493.32 796.24 491.44 796.96C493.52 797.56 494.72 799 494.72 801.4C494.72 805.08 491.44 807.4 485.64 807.4C479.92 807.4 476.84 804.96 476.16 800.72L481.36 799.76C481.76 801.72 483.04 803 485.64 803ZM509.856 807V804.8C508.616 806.52 506.616 807.4 504.216 807.4C500.456 807.4 497.536 805.32 497.536 801.56C497.536 797.44 500.376 795.8 504.896 795.48C506.656 795.36 508.336 795.4 509.656 795.44V794.24C509.656 792.36 508.696 791.44 506.816 791.44C504.856 791.44 503.856 792.48 503.416 794.08L498.216 793.16C498.896 789.36 502.016 787 506.816 787C511.856 787 515.176 789.04 515.176 794.2V807H509.856ZM509.656 799.04C508.656 798.96 507.216 798.96 505.976 799.04C504.376 799.16 503.176 799.76 503.176 801.08C503.176 802.44 504.216 803.2 505.856 803.2C508.136 803.2 509.656 802 509.656 800.2V799.04ZM529.261 785.76C524.021 785.76 522.381 783.16 522.341 779.48H526.821C526.861 781.4 527.541 782.28 529.261 782.28C530.941 782.28 531.541 781.4 531.581 779.48H536.101C536.101 783.16 534.421 785.76 529.261 785.76ZM525.541 807H519.901V787.4H525.461V799.4L532.741 787.4H538.621V807H533.061V794.88L525.541 807ZM543.456 807V787.4H549.176V794.48H556.176V787.4H561.896V807H556.176V799.44H549.176V807H543.456ZM586.18 798.48H574.22V793.48H586.18V798.48ZM596.335 802H598.415C599.575 801.04 600.295 799.44 600.415 797.32C600.535 795.12 600.535 791.84 600.575 787.4H616.655V802H619.535V812.36H614.015V807H601.855V812.36H596.335V802ZM605.695 797.56C605.575 799.48 605.015 800.92 604.295 802H610.895V792.4H605.775C605.775 794.2 605.775 796.4 605.695 797.56ZM624.242 798.6C624.322 795.64 624.362 790.28 624.362 787.4H640.522V807H634.762V792.4H629.562C629.522 794.72 629.482 798.04 629.402 799.88C629.282 805 627.922 807 623.002 807H620.442V802H621.602C623.562 802 624.122 801.32 624.242 798.6ZM644.69 794.08C644.69 789.92 647.41 787.4 652.41 787.4H662.77V807H657.05V800.6H654.45L650.61 807H644.41L648.77 800.12C646.13 799.28 644.69 797.24 644.69 794.08ZM653.37 796.24H657.05V791.84H653.37C651.41 791.84 650.45 792.56 650.45 794.08C650.45 795.48 651.49 796.24 653.37 796.24ZM67.44 858V838.4H85.68V858H79.96V843.4H73.16V858H67.44ZM90.565 865.76V838.4H96.165V840.8C97.285 839.08 99.445 838 102.045 838C106.725 838 110.285 841.44 110.285 848.04C110.285 854.88 106.445 858.4 101.365 858.4C99.285 858.4 97.525 857.76 96.285 856.6V865.76H90.565ZM96.285 849.76C96.285 852 97.885 853.64 100.405 853.64C102.965 853.64 104.525 851.64 104.525 848.16C104.525 844.76 102.965 842.76 100.405 842.76C97.965 842.76 96.285 844.4 96.285 846.88V849.76ZM119.799 858H114.159V838.4H119.719V850.4L126.999 838.4H132.879V858H127.319V845.88L119.799 858ZM137.713 858V838.4H147.033C151.713 838.4 154.353 840.16 154.353 843.68C154.353 845.52 153.473 847.28 151.553 847.84C153.713 848.28 154.873 849.96 154.873 852.2C154.873 855.76 152.633 858 147.633 858H137.713ZM146.513 842.48H143.193V846.16H146.553C148.353 846.16 149.073 845.6 149.073 844.36C149.073 843.04 148.353 842.48 146.513 842.48ZM147.033 850.04H143.193V853.92H147.073C148.833 853.92 149.593 853.32 149.593 852C149.593 850.64 148.833 850.04 147.033 850.04ZM160.492 849.6C160.572 846.64 160.612 841.28 160.612 838.4H176.772V858H171.012V843.4H165.812C165.772 845.72 165.732 849.04 165.652 850.88C165.532 856 164.172 858 159.252 858H156.692V853H157.852C159.812 853 160.372 852.32 160.492 849.6ZM199.22 849.52H185.98C186.18 852.48 187.86 853.96 190.14 853.96C192.3 853.96 193.34 852.84 193.86 851.52L198.82 852.44C197.94 855.56 195.3 858.4 189.98 858.4C184.26 858.4 180.54 854.8 180.54 848.2C180.54 841.6 184.66 838 190.26 838C195.7 838 199.3 841.44 199.3 847.64C199.3 848.4 199.26 849.16 199.22 849.52ZM190.26 842.4C188.14 842.4 186.58 843.64 186.1 845.96H194.06C193.82 843.92 192.58 842.4 190.26 842.4ZM214.227 858V851.08C213.147 851.48 211.587 851.76 209.667 851.76C204.707 851.76 202.147 849.56 202.147 844.84V838.4H207.867V844.04C207.867 846.32 208.987 847.04 211.267 847.04C212.507 847.04 213.467 846.8 214.227 846.48V838.4H219.947V858H214.227ZM242.423 849.52H229.183C229.383 852.48 231.063 853.96 233.343 853.96C235.503 853.96 236.543 852.84 237.063 851.52L242.023 852.44C241.143 855.56 238.503 858.4 233.183 858.4C227.463 858.4 223.743 854.8 223.743 848.2C223.743 841.6 227.863 838 233.463 838C238.903 838 242.503 841.44 242.503 847.64C242.503 848.4 242.463 849.16 242.423 849.52ZM233.463 842.4C231.343 842.4 229.783 843.64 229.303 845.96H237.263C237.023 843.92 235.783 842.4 233.463 842.4ZM246.19 858V838.4H251.91V845.48H258.91V838.4H264.63V858H258.91V850.44H251.91V858H246.19ZM275.15 858H269.51V838.4H275.07V850.4L282.35 838.4H288.23V858H282.67V845.88L275.15 858ZM292.385 845.08C292.385 840.92 295.105 838.4 300.105 838.4H310.465V858H304.745V851.6H302.145L298.305 858H292.105L296.465 851.12C293.825 850.28 292.385 848.24 292.385 845.08ZM301.065 847.24H304.745V842.84H301.065C299.105 842.84 298.145 843.56 298.145 845.08C298.145 846.48 299.185 847.24 301.065 847.24ZM325.375 849.6C325.455 846.64 325.495 841.28 325.495 838.4H341.655V858H335.895V843.4H330.695C330.655 845.72 330.615 849.04 330.535 850.88C330.415 856 329.055 858 324.135 858H321.575V853H322.735C324.695 853 325.255 852.32 325.375 849.6ZM352.143 858H346.503V838.4H352.063V850.4L359.343 838.4H365.223V858H359.663V845.88L352.143 858ZM367.897 853H369.977C371.137 852.04 371.857 850.44 371.977 848.32C372.097 846.12 372.097 842.84 372.137 838.4H388.217V853H391.097V863.36H385.577V858H373.417V863.36H367.897V853ZM377.257 848.56C377.137 850.48 376.577 851.92 375.857 853H382.457V843.4H377.337C377.337 845.2 377.337 847.4 377.257 848.56ZM402.804 858.4C396.684 858.4 392.844 854.56 392.844 848.16C392.844 841.76 396.644 838 402.804 838C408.964 838 412.724 841.76 412.724 848.16C412.724 854.56 408.964 858.4 402.804 858.4ZM402.804 853.68C405.444 853.68 407.044 851.76 407.044 848.16C407.044 844.52 405.444 842.72 402.804 842.72C400.204 842.72 398.524 844.48 398.524 848.16C398.524 851.76 400.244 853.68 402.804 853.68ZM416.542 858V838.4H425.862C430.542 838.4 433.182 840.16 433.182 843.68C433.182 845.52 432.302 847.28 430.382 847.84C432.542 848.28 433.702 849.96 433.702 852.2C433.702 855.76 431.462 858 426.462 858H416.542ZM425.342 842.48H422.022V846.16H425.382C427.182 846.16 427.902 845.6 427.902 844.36C427.902 843.04 427.182 842.48 425.342 842.48ZM425.862 850.04H422.022V853.92H425.902C427.662 853.92 428.422 853.32 428.422 852C428.422 850.64 427.662 850.04 425.862 850.04ZM451.244 858H445.604V838.4H451.164V850.4L458.444 838.4H464.324V858H458.764V845.88L451.244 858ZM477.323 858V838.4H486.643C491.323 838.4 493.963 840.16 493.963 843.68C493.963 845.52 493.083 847.28 491.163 847.84C493.323 848.28 494.483 849.96 494.483 852.2C494.483 855.76 492.243 858 487.243 858H477.323ZM486.123 842.48H482.803V846.16H486.163C487.963 846.16 488.683 845.6 488.683 844.36C488.683 843.04 487.963 842.48 486.123 842.48ZM486.643 850.04H482.803V853.92H486.683C488.443 853.92 489.203 853.32 489.203 852C489.203 850.64 488.443 850.04 486.643 850.04ZM506.421 854C508.781 854 509.981 853.24 509.981 851.92C509.981 850.68 509.181 850.08 507.061 850.08H503.901V846.2H506.981C508.901 846.2 509.661 845.48 509.661 844.36C509.661 843.16 508.741 842.4 506.621 842.4C504.061 842.4 502.661 843.72 502.181 845.56L497.101 844.64C497.941 840.52 501.341 838 506.621 838C511.981 838 515.061 840.04 515.061 843.72C515.061 845.68 514.101 847.24 512.221 847.96C514.301 848.56 515.501 850 515.501 852.4C515.501 856.08 512.221 858.4 506.421 858.4C500.701 858.4 497.621 855.96 496.941 851.72L502.141 850.76C502.541 852.72 503.821 854 506.421 854ZM519.237 858V838.4H532.917V843.4H524.957V858H519.237ZM536.937 849.6C537.017 846.64 537.057 841.28 537.057 838.4H553.217V858H547.457V843.4H542.257C542.217 845.72 542.177 849.04 542.097 850.88C541.977 856 540.617 858 535.697 858H533.137V853H534.297C536.257 853 536.817 852.32 536.937 849.6ZM557.385 845.08C557.385 840.92 560.105 838.4 565.105 838.4H575.465V858H569.745V851.6H567.145L563.305 858H557.105L561.465 851.12C558.825 850.28 557.385 848.24 557.385 845.08ZM566.065 847.24H569.745V842.84H566.065C564.105 842.84 563.145 843.56 563.145 845.08C563.145 846.48 564.185 847.24 566.065 847.24ZM578.171 853H580.251C581.411 852.04 582.131 850.44 582.251 848.32C582.371 846.12 582.371 842.84 582.411 838.4H598.491V853H601.371V863.36H595.851V858H583.691V863.36H578.171V853ZM587.531 848.56C587.411 850.48 586.851 851.92 586.131 853H592.731V843.4H587.611C587.611 845.2 587.611 847.4 587.531 848.56ZM613.078 858.4C606.958 858.4 603.118 854.56 603.118 848.16C603.118 841.76 606.918 838 613.078 838C619.238 838 622.998 841.76 622.998 848.16C622.998 854.56 619.238 858.4 613.078 858.4ZM613.078 853.68C615.718 853.68 617.318 851.76 617.318 848.16C617.318 844.52 615.718 842.72 613.078 842.72C610.478 842.72 608.798 844.48 608.798 848.16C608.798 851.76 610.518 853.68 613.078 853.68ZM626.815 858V838.4H636.135C640.815 838.4 643.455 840.16 643.455 843.68C643.455 845.52 642.575 847.28 640.655 847.84C642.815 848.28 643.975 849.96 643.975 852.2C643.975 855.76 641.735 858 636.735 858H626.815ZM635.615 842.48H632.295V846.16H635.655C637.455 846.16 638.175 845.6 638.175 844.36C638.175 843.04 637.455 842.48 635.615 842.48ZM636.135 850.04H632.295V853.92H636.175C637.935 853.92 638.695 853.32 638.695 852C638.695 850.64 637.935 850.04 636.135 850.04Z" fill="white"/>
<rect x="69" y="905" width="147" height="45" rx="22" fill="white"/>
<path d="M88.0209 934H89.6849C90.6129 933.232 91.1889 931.952 91.2849 930.256C91.3809 928.496 91.3809 925.872 91.4129 922.32H104.277V934H106.581V942.288H102.165V938H92.4369V942.288H88.0209V934ZM95.5089 930.448C95.4129 931.984 94.9649 933.136 94.3889 934H99.6689V926.32H95.5729C95.5729 927.76 95.5729 929.52 95.5089 930.448ZM113.355 938H108.843V922.32H113.291V931.92L119.115 922.32H123.819V938H119.371V928.304L113.355 938ZM134.246 934.8C136.134 934.8 137.094 934.192 137.094 933.136C137.094 932.144 136.454 931.664 134.758 931.664H132.23V928.56H134.694C136.23 928.56 136.838 927.984 136.838 927.088C136.838 926.128 136.102 925.52 134.406 925.52C132.358 925.52 131.238 926.576 130.854 928.048L126.79 927.312C127.462 924.016 130.182 922 134.406 922C138.694 922 141.158 923.632 141.158 926.576C141.158 928.144 140.39 929.392 138.886 929.968C140.55 930.448 141.51 931.6 141.51 933.52C141.51 936.464 138.886 938.32 134.246 938.32C129.67 938.32 127.206 936.368 126.662 932.976L130.822 932.208C131.142 933.776 132.166 934.8 134.246 934.8ZM153.619 938V936.24C152.627 937.616 151.027 938.32 149.107 938.32C146.099 938.32 143.763 936.656 143.763 933.648C143.763 930.352 146.035 929.04 149.651 928.784C151.059 928.688 152.403 928.72 153.459 928.752V927.792C153.459 926.288 152.691 925.552 151.187 925.552C149.619 925.552 148.819 926.384 148.467 927.664L144.307 926.928C144.851 923.888 147.347 922 151.187 922C155.219 922 157.875 923.632 157.875 927.76V938H153.619ZM153.459 931.632C152.659 931.568 151.507 931.568 150.515 931.632C149.235 931.728 148.275 932.208 148.275 933.264C148.275 934.352 149.107 934.96 150.419 934.96C152.243 934.96 153.459 934 153.459 932.56V931.632ZM169.143 921.008C164.951 921.008 163.639 918.928 163.607 915.984H167.191C167.223 917.52 167.767 918.224 169.143 918.224C170.487 918.224 170.967 917.52 170.999 915.984H174.615C174.615 918.928 173.271 921.008 169.143 921.008ZM166.167 938H161.655V922.32H166.103V931.92L171.927 922.32H176.631V938H172.183V928.304L166.167 938ZM180.499 938V922.32H185.075V927.984H190.675V922.32H195.251V938H190.675V931.952H185.075V938H180.499Z" fill="black"/>
<rect x="235" y="905" width="198" height="45" rx="22" fill="white"/>
<path d="M255.39 938V922.32H262.11L265.886 932.752L269.438 922.32H276.158V938H271.838V926.8L267.774 938H263.582L259.518 926.832V938H255.39ZM289.197 938V936.24C288.205 937.616 286.605 938.32 284.685 938.32C281.677 938.32 279.341 936.656 279.341 933.648C279.341 930.352 281.613 929.04 285.229 928.784C286.637 928.688 287.981 928.72 289.037 928.752V927.792C289.037 926.288 288.269 925.552 286.765 925.552C285.197 925.552 284.397 926.384 284.045 927.664L279.885 926.928C280.429 923.888 282.925 922 286.765 922C290.797 922 293.453 923.632 293.453 927.76V938H289.197ZM289.037 931.632C288.237 931.568 287.085 931.568 286.093 931.632C284.813 931.728 283.853 932.208 283.853 933.264C283.853 934.352 284.685 934.96 285.997 934.96C287.821 934.96 289.037 934 289.037 932.56V931.632ZM297.233 944.208V922.32H301.713V924.24C302.609 922.864 304.337 922 306.417 922C310.161 922 313.009 924.752 313.009 930.032C313.009 935.504 309.937 938.32 305.873 938.32C304.209 938.32 302.801 937.808 301.809 936.88V944.208H297.233ZM301.809 931.408C301.809 933.2 303.089 934.512 305.105 934.512C307.153 934.512 308.401 932.912 308.401 930.128C308.401 927.408 307.153 925.808 305.105 925.808C303.153 925.808 301.809 927.12 301.809 929.104V931.408ZM316.108 938V922.32H320.684V928.112H322.508L326.092 922.32H331.148L326.38 929.68L331.404 938H326.156L322.54 931.728H320.684V938H316.108ZM347.126 931.216H336.534C336.694 933.584 338.038 934.768 339.862 934.768C341.59 934.768 342.422 933.872 342.838 932.816L346.806 933.552C346.102 936.048 343.99 938.32 339.734 938.32C335.158 938.32 332.182 935.44 332.182 930.16C332.182 924.88 335.478 922 339.958 922C344.31 922 347.19 924.752 347.19 929.712C347.19 930.32 347.158 930.928 347.126 931.216ZM339.958 925.52C338.262 925.52 337.014 926.512 336.63 928.368H342.998C342.806 926.736 341.814 925.52 339.958 925.52ZM348.607 926.32V922.32H363.007V926.32H358.111V938H353.503V926.32H348.607ZM370.058 938H365.546V922.32H369.994V931.92L375.818 922.32H380.522V938H376.074V928.304L370.058 938ZM384.39 938V922.32H388.966V927.984H394.566V922.32H399.142V938H394.566V931.952H388.966V938H384.39ZM403.046 938V922.32H413.99V926.32H407.622V938H403.046Z" fill="black"/>
<rect x="452" y="905" width="180" height="45" rx="22" fill="white"/>
<path d="M486.933 919.76C485.397 919.952 483.413 920.112 481.365 920.336C477.749 920.72 475.989 922.064 475.989 925.52C477.013 923.888 479.125 922.992 481.333 922.992C485.109 922.992 487.733 925.328 487.733 930.48C487.733 935.28 484.821 938.288 479.797 938.288C474.805 938.288 471.861 935.536 471.861 929.584V926.512C471.861 919.28 475.125 916.816 480.853 916.176C483.157 915.92 485.045 915.728 486.453 915.568L486.933 919.76ZM479.893 934.704C481.973 934.704 483.221 933.2 483.221 930.608C483.221 927.92 482.101 926.512 479.957 926.512C477.973 926.512 476.501 927.792 476.501 929.712V930.544C476.501 933.328 477.813 934.704 479.893 934.704ZM490.811 944.208V922.32H495.291V924.24C496.187 922.864 497.915 922 499.995 922C503.739 922 506.587 924.752 506.587 930.032C506.587 935.504 503.515 938.32 499.451 938.32C497.787 938.32 496.379 937.808 495.387 936.88V944.208H490.811ZM495.387 931.408C495.387 933.2 496.667 934.512 498.683 934.512C500.731 934.512 501.979 932.912 501.979 930.128C501.979 927.408 500.731 925.808 498.683 925.808C496.731 925.808 495.387 927.12 495.387 929.104V931.408ZM523.766 931.216H513.174C513.334 933.584 514.678 934.768 516.502 934.768C518.23 934.768 519.062 933.872 519.478 932.816L523.446 933.552C522.742 936.048 520.63 938.32 516.374 938.32C511.798 938.32 508.822 935.44 508.822 930.16C508.822 924.88 512.118 922 516.598 922C520.95 922 523.83 924.752 523.83 929.712C523.83 930.32 523.798 930.928 523.766 931.216ZM516.598 925.52C514.902 925.52 513.654 926.512 513.27 928.368H519.638C519.446 926.736 518.454 925.52 516.598 925.52ZM526.78 938V922.32H531.356V927.984H536.956V922.32H541.532V938H536.956V931.952H531.356V938H526.78ZM543.708 934H545.372C546.3 933.232 546.876 931.952 546.972 930.256C547.068 928.496 547.068 925.872 547.1 922.32H559.964V934H562.268V942.288H557.852V938H548.124V942.288H543.708V934ZM551.196 930.448C551.1 931.984 550.652 933.136 550.076 934H555.356V926.32H551.26C551.26 927.76 551.26 929.52 551.196 930.448ZM569.042 938H564.53V922.32H568.978V931.92L574.802 922.32H579.506V938H575.058V928.304L569.042 938ZM583.374 938V922.32H587.95V927.984H593.55V922.32H598.126V938H593.55V931.952H587.95V938H583.374ZM602.03 938V922.32H612.974V926.32H606.606V938H602.03Z" fill="black"/>
<rect x="651" y="905" width="129" height="45" rx="22" fill="white"/>
<path d="M681.184 932.176L685.408 932.848C684.768 936.24 682.336 938.32 678.208 938.32C673.6 938.32 670.432 935.568 670.432 930.128C670.432 924.784 673.6 922 678.208 922C682.336 922 684.8 924.08 685.408 927.472L681.216 928.144C680.896 926.832 680.064 925.744 678.24 925.744C676.192 925.744 674.976 927.312 674.976 930.128C674.976 932.944 676.16 934.576 678.24 934.576C680.096 934.576 680.864 933.52 681.184 932.176ZM697.26 938V936.24C696.268 937.616 694.668 938.32 692.748 938.32C689.74 938.32 687.404 936.656 687.404 933.648C687.404 930.352 689.676 929.04 693.292 928.784C694.7 928.688 696.044 928.72 697.1 928.752V927.792C697.1 926.288 696.332 925.552 694.828 925.552C693.26 925.552 692.46 926.384 692.108 927.664L687.948 926.928C688.492 923.888 690.988 922 694.828 922C698.86 922 701.516 923.632 701.516 927.76V938H697.26ZM697.1 931.632C696.3 931.568 695.148 931.568 694.156 931.632C692.876 931.728 691.916 932.208 691.916 933.264C691.916 934.352 692.748 934.96 694.06 934.96C695.884 934.96 697.1 934 697.1 932.56V931.632ZM712.784 921.008C708.592 921.008 707.28 918.928 707.248 915.984H710.832C710.864 917.52 711.408 918.224 712.784 918.224C714.128 918.224 714.608 917.52 714.64 915.984H718.256C718.256 918.928 716.912 921.008 712.784 921.008ZM709.808 938H705.296V922.32H709.744V931.92L715.568 922.32H720.272V938H715.824V928.304L709.808 938ZM722.764 926.32V922.32H737.164V926.32H732.268V938H727.66V926.32H722.764ZM755.126 938V922.32H759.702V938H755.126ZM739.702 938V922.32H744.278V926.736H747.638C751.286 926.736 753.462 928.496 753.462 932.24C753.462 936.048 751.414 938 747.606 938H739.702ZM746.486 930.384H744.278V934.352H746.454C748.438 934.352 749.078 933.84 749.078 932.272C749.078 930.8 748.31 930.384 746.486 930.384Z" fill="black"/>
<rect x="799" y="905" width="116" height="45" rx="22" fill="white"/>
<path d="M832.223 916.24L840.191 938H835.071L833.311 932.976H824.607L822.879 938H817.887L825.855 916.24H832.223ZM826.111 928.688H831.839L828.959 920.464L826.111 928.688ZM845.763 938L840.227 922.32H845.027L848.707 933.712L852.323 922.32H857.027L851.555 938H845.763ZM859.263 920.176V916.144H863.967V920.176H859.263ZM859.327 938V922.32H863.903V938H859.327ZM877.588 938H874.868C870.58 938 868.724 936.4 868.724 931.92V926.32H866.356V922.32H868.724V918.48H873.332V922.32H877.524V926.32H873.332V931.824C873.332 933.488 874.036 934 875.444 934H877.588V938ZM887.587 938.32C882.691 938.32 879.619 935.248 879.619 930.128C879.619 925.008 882.659 922 887.587 922C892.515 922 895.523 925.008 895.523 930.128C895.523 935.248 892.515 938.32 887.587 938.32ZM887.587 934.544C889.699 934.544 890.979 933.008 890.979 930.128C890.979 927.216 889.699 925.776 887.587 925.776C885.507 925.776 884.163 927.184 884.163 930.128C884.163 933.008 885.539 934.544 887.587 934.544Z" fill="black"/>
<rect x="1588" y="885" width="271" height="65" rx="22" fill="#AF2F2F"/>
<path d="M1630.41 934L1622.82 922.576L1615.48 934H1606.79L1618.36 917.056L1607.27 901.36H1616.15L1623.35 912.016L1630.12 901.36H1638.81L1627.72 917.632L1639.29 934H1630.41ZM1652.8 934.48C1645.46 934.48 1640.85 929.872 1640.85 922.192C1640.85 914.512 1645.41 910 1652.8 910C1660.19 910 1664.71 914.512 1664.71 922.192C1664.71 929.872 1660.19 934.48 1652.8 934.48ZM1652.8 928.816C1655.97 928.816 1657.89 926.512 1657.89 922.192C1657.89 917.824 1655.97 915.664 1652.8 915.664C1649.68 915.664 1647.67 917.776 1647.67 922.192C1647.67 926.512 1649.73 928.816 1652.8 928.816ZM1682.78 934V925.696C1681.48 926.176 1679.61 926.512 1677.3 926.512C1671.35 926.512 1668.28 923.872 1668.28 918.208V910.48H1675.14V917.248C1675.14 919.984 1676.49 920.848 1679.22 920.848C1680.71 920.848 1681.86 920.56 1682.78 920.176V910.48H1689.64V934H1682.78ZM1709.99 934.912C1707.63 941.536 1705.33 943.312 1699.47 943.312H1696.31V937.312H1698.75C1700.87 937.312 1702.07 936.784 1702.83 935.008L1702.93 934.816L1693.14 910.48H1700.77L1706.53 926.416L1711.52 910.48H1718.67L1709.99 934.912ZM1729.85 916.48V910.48H1751.45V916.48H1744.1V934H1737.19V916.48H1729.85ZM1765.58 934.48C1758.24 934.48 1753.63 929.872 1753.63 922.192C1753.63 914.512 1758.19 910 1765.58 910C1772.98 910 1777.49 914.512 1777.49 922.192C1777.49 929.872 1772.98 934.48 1765.58 934.48ZM1765.58 928.816C1768.75 928.816 1770.67 926.512 1770.67 922.192C1770.67 917.824 1768.75 915.664 1765.58 915.664C1762.46 915.664 1760.45 917.776 1760.45 922.192C1760.45 926.512 1762.51 928.816 1765.58 928.816ZM1778.73 934L1785.45 921.472L1779.06 910.48H1786.5L1791.16 919.168H1793.7V910.48H1800.42V919.168H1803.02L1807.62 910.48H1815.06L1808.68 921.472L1815.45 934H1807.77L1803.06 924.592H1800.42V934H1793.7V924.592H1791.11L1786.36 934H1778.73ZM1839.09 923.824H1823.21C1823.45 927.376 1825.46 929.152 1828.2 929.152C1830.79 929.152 1832.04 927.808 1832.66 926.224L1838.61 927.328C1837.56 931.072 1834.39 934.48 1828.01 934.48C1821.14 934.48 1816.68 930.16 1816.68 922.24C1816.68 914.32 1821.62 910 1828.34 910C1834.87 910 1839.19 914.128 1839.19 921.568C1839.19 922.48 1839.14 923.392 1839.09 923.824ZM1828.34 915.28C1825.8 915.28 1823.93 916.768 1823.35 919.552H1832.9C1832.61 917.104 1831.13 915.28 1828.34 915.28Z" fill="white"/>
</svg>
